<svg width="200" height="48" viewBox="0 0 200 48" fill="none" xmlns="http://www.w3.org/2000/svg">
<g clip-path="url(#clip0_1508_403)">
<path d="M15.37 22.0462C16.1714 20.9654 17.8955 20.0893 19.221 20.0893H37.9792C39.3047 20.0893 39.7295 20.9654 38.9281 22.0462L34.104 28.552C33.3026 29.6328 31.5784 30.509 30.253 30.509H11.4947C10.1693 30.509 9.74446 29.6328 10.5459 28.552L15.37 22.0462Z" fill="#101827" style="fill:#101827;fill:color(display-p3 0.0627 0.0941 0.1529);fill-opacity:1;"/>
<path d="M37.9788 20.0892C39.3042 20.0892 39.7294 20.9655 38.928 22.0462L34.1038 28.5521C33.7022 29.0936 33.069 29.5836 32.3704 29.9378L28.2122 20.0892H37.9788Z" fill="#7C8398" style="fill:#7C8398;fill:color(display-p3 0.4863 0.5137 0.5961);fill-opacity:1;"/>
<path d="M30.1487 11.5514C30.9501 10.4706 32.6742 9.59445 33.9997 9.59445H48.311C49.6364 9.59445 50.0613 10.4706 49.2598 11.5514L46.3814 15.4333C45.58 16.5141 43.8558 17.3902 42.5304 17.3902H28.2191C26.8936 17.3902 26.4688 16.5141 27.2702 15.4333L30.1487 11.5514Z" fill="#101827" style="fill:#101827;fill:color(display-p3 0.0627 0.0941 0.1529);fill-opacity:1;"/>
<path d="M181.551 28.515C181.551 27.01 180.711 26.31 178.156 25.89L172.661 25.085C168.391 24.455 166.186 21.865 166.186 18.435V17.56C166.186 13.185 169.826 10.595 176.196 10.595C182.811 10.595 185.996 13.15 186.171 18.68H181.026L180.991 18.085C180.851 16.09 179.416 15.005 176.196 15.005C172.731 15.005 171.436 15.985 171.436 17.56V17.91C171.436 19.415 172.311 20.01 174.411 20.36L179.906 21.165C184.771 21.865 186.871 24.245 186.871 27.815V28.865C186.871 33.24 183.266 36.005 176.616 36.005C169.406 36.005 165.871 33.485 165.696 27.43H170.946L170.981 28.025C171.121 30.545 173.011 31.525 176.616 31.525C180.011 31.525 181.551 30.615 181.551 28.865V28.515Z" fill="#101827" style="fill:#101827;fill:color(display-p3 0.0627 0.0941 0.1529);fill-opacity:1;"/>
<path d="M154.005 10.595C160.235 10.595 165.73 14.165 165.73 22.565V24.035C165.73 32.435 160.235 36.005 154.005 36.005C147.775 36.005 142.28 32.435 142.28 24.035V22.565C142.28 14.165 147.775 10.595 154.005 10.595ZM147.88 24.84C147.88 29.215 149.77 31.28 154.005 31.28C158.205 31.28 160.13 29.215 160.13 24.84V21.76C160.13 17.385 158.205 15.32 154.005 15.32C149.77 15.32 147.88 17.385 147.88 21.76V24.84Z" fill="#101827" style="fill:#101827;fill:color(display-p3 0.0627 0.0941 0.1529);fill-opacity:1;"/>
<path d="M131.292 36.005C124.747 36.005 121.947 31.945 121.947 26.695V25.645C121.947 20.395 124.922 16.335 131.397 16.335C137.767 16.335 140.322 20.01 140.322 25.4V27.01H127.022V27.22C127.022 30.405 128.247 31.84 131.397 31.84C134.197 31.84 135.282 30.545 135.352 29.39L135.387 28.865H140.322C140.252 32.61 137.592 36.005 131.292 36.005ZM127.057 23.965H135.352C135.107 21.41 134.022 20.255 131.292 20.255C128.492 20.255 127.267 21.41 127.057 23.965Z" fill="#101827" style="fill:#101827;fill:color(display-p3 0.0627 0.0941 0.1529);fill-opacity:1;"/>
<path d="M109.737 36.005C104.907 36.005 102.422 32.26 102.422 26.625V25.715C102.422 20.115 104.907 16.335 109.737 16.335C113.237 16.335 115.092 18.015 115.967 21.025H116.247V10H121.392V35.55H116.247V31.315H115.967C115.092 34.325 113.237 36.005 109.737 36.005ZM107.742 26.94C107.742 30.265 108.967 31.525 111.907 31.525C115.022 31.525 116.247 30.265 116.247 27.15V25.365C116.247 22.075 115.022 20.815 111.907 20.815C108.967 20.815 107.742 22.075 107.742 25.435V26.94Z" fill="#101827" style="fill:#101827;fill:color(display-p3 0.0627 0.0941 0.1529);fill-opacity:1;"/>
<path d="M96.6915 35.55V16.79H101.837V35.55H96.6915ZM96.5515 14.2V10.14H102.012V14.2H96.5515Z" fill="#101827" style="fill:#101827;fill:color(display-p3 0.0627 0.0941 0.1529);fill-opacity:1;"/>
<path d="M94.1004 16.44C95.1154 16.44 95.6404 16.615 96.0254 16.79V21.76H93.5754C90.5304 21.76 89.5154 23.23 89.5154 26.135V35.55H84.3704V16.79H89.5154V21.865H89.7954C90.2154 17.665 91.4754 16.44 94.1004 16.44Z" fill="#101827" style="fill:#101827;fill:color(display-p3 0.0627 0.0941 0.1529);fill-opacity:1;"/>
<path d="M79.4827 35.83C75.5277 35.83 73.9177 34.22 73.9177 30.265V20.99H71.1877V16.79H73.9177V12.905L79.0627 11.785V16.79H83.6827V20.99H79.0627V29.95C79.0627 30.895 79.5177 31.35 80.4627 31.35H83.6477V35.55C82.4227 35.69 81.0927 35.83 79.4827 35.83Z" fill="#101827" style="fill:#101827;fill:color(display-p3 0.0627 0.0941 0.1529);fill-opacity:1;"/>
<path d="M62.82 36.005C57.57 36.005 54.175 34.535 54 29.53H58.83L58.865 30.02C58.97 31.49 60.23 32.085 62.82 32.085C65.445 32.085 66.53 31.595 66.53 30.44V30.16C66.53 28.97 65.83 28.655 64.15 28.41L59.6 27.745C56.31 27.255 54.42 25.645 54.42 22.425V21.795C54.42 18.295 57.57 16.335 62.575 16.335C68.77 16.335 70.695 19.065 70.87 22.81H66.005L65.97 22.32C65.865 20.885 65.025 20.15 62.47 20.15C60.02 20.15 59.145 20.815 59.145 21.9V22.145C59.145 23.055 59.775 23.51 61.385 23.72L65.655 24.35C69.925 24.98 71.395 26.835 71.395 29.88V30.475C71.395 33.975 68.14 36.005 62.82 36.005Z" fill="#101827" style="fill:#101827;fill:color(display-p3 0.0627 0.0941 0.1529);fill-opacity:1;"/>
</g>
<defs>
<clipPath id="clip0_1508_403">
<rect width="200" height="48" fill="white" style="fill:white;fill-opacity:1;"/>
</clipPath>
</defs>
</svg>
